HIERARCHY
ROOT Hips
{
	OFFSET 0.000000 0.000000 0.000000
	CHANNELS 6 Xposition Yposition Zposition Xrotation Yrotation Zrotation
	JOINT LeftUpLeg_virtual
	{
		OFFSET 0.000000 0.000000 0.000000
		CHANNELS 3 Xrotation Yrotation Zrotation
		JOINT LeftUpLeg
		{
			OFFSET 13.026900 -6.336304 -1.092800
			CHANNELS 3 Xrotation Yrotation Zrotation
			JOINT LeftLeg
			{
				OFFSET 0.524474 -46.096886 9.782700
				CHANNELS 3 Xrotation Yrotation Zrotation
				JOINT LeftFoot
				{
					OFFSET -0.524474 -53.427422 -12.948200
					CHANNELS 3 Xrotation Yrotation Zrotation
					JOINT LeftToeBase
					{
						OFFSET 0.192200 -14.009700 16.364100
						CHANNELS 3 Xrotation Yrotation Zrotation
						JOINT LeftToe_End
						{
							OFFSET -1.784700 -0.561700 9.474800
							CHANNELS 3 Xrotation Yrotation Zrotation
							End Site
							{
								OFFSET 0 0 0
							}
						}
					}
				}
			}
		}
	}
	JOINT RightUpLeg_virtual
	{
		OFFSET 0.000000 0.000000 0.000000
		CHANNELS 3 Xrotation Yrotation Zrotation
		JOINT RightUpLeg
		{
			OFFSET -12.883000 -6.336304 -1.092800
			CHANNELS 3 Xrotation Yrotation Zrotation
			JOINT RightLeg
			{
				OFFSET -0.524587 -46.096825 9.782800
				CHANNELS 3 Xrotation Yrotation Zrotation
				JOINT RightFoot
				{
					OFFSET 0.524587 -53.427383 -12.948300
					CHANNELS 3 Xrotation Yrotation Zrotation
					JOINT RightToeBase
					{
						OFFSET -0.192200 -14.009700 16.364100
						CHANNELS 3 Xrotation Yrotation Zrotation
						JOINT RightToe_End
						{
							OFFSET 1.784700 -0.561700 9.474800
							CHANNELS 3 Xrotation Yrotation Zrotation
							End Site
							{
								OFFSET 0 0 0
							}
						}
					}
				}
			}
		}
	}
	JOINT Spine_virtual
	{
		OFFSET 0.000000 0.000000 0.000000
		CHANNELS 3 Xrotation Yrotation Zrotation
		JOINT Spine
		{
			OFFSET 0.072000 7.257294 -0.789700
			CHANNELS 3 Xrotation Yrotation Zrotation
			JOINT Spine1
			{
				OFFSET 0.000000 12.508769 -0.658067
				CHANNELS 3 Xrotation Yrotation Zrotation
				JOINT Spine1_split
				{
					OFFSET 0.000000 12.508769 -0.658067
					CHANNELS 3 Xrotation Yrotation Zrotation
					JOINT Spine2
					{
						OFFSET 0.000000 12.508769 -0.658067
						CHANNELS 3 Xrotation Yrotation Zrotation
						JOINT Neck_virtual
						{
							OFFSET 0.000000 0.000000 0.000000
							CHANNELS 3 Xrotation Yrotation Zrotation
							JOINT Neck
							{
								OFFSET 0.000000 14.033295 7.520400
								CHANNELS 3 Xrotation Yrotation Zrotation
								JOINT Head
								{
									OFFSET 0.000000 8.198502 5.703100
									CHANNELS 3 Xrotation Yrotation Zrotation
									JOINT HeadTop_End
									{
										OFFSET 0.000000 17.760803 13.332701
										CHANNELS 3 Xrotation Yrotation Zrotation
										End Site
										{
											OFFSET 0 0 0
										}
									}
								}
							}
						}
						JOINT LeftShoulder_virtual
						{
							OFFSET 0.000000 0.000000 0.000000
							CHANNELS 3 Xrotation Yrotation Zrotation
							JOINT LeftShoulder
							{
								OFFSET 6.292450 5.785301 -0.669000
								CHANNELS 3 Xrotation Yrotation Zrotation
								JOINT LeftShoulder_split
								{
									OFFSET 6.292450 5.785301 -0.669000
									CHANNELS 3 Xrotation Yrotation Zrotation
									JOINT LeftArm
									{
										OFFSET 13.907140 -6.093903 1.965100
										CHANNELS 3 Xrotation Yrotation Zrotation
										JOINT LeftForeArm
										{
											OFFSET 34.140198 0.000000 0.000000
											CHANNELS 3 Xrotation Yrotation Zrotation
											JOINT LeftHand
											{
												OFFSET 40.960209 0.000000 0.000000
												CHANNELS 3 Xrotation Yrotation Zrotation
												End Site
												{
													OFFSET 0 0 0
												}
											}
										}
									}
								}
							}
						}
						JOINT RightShoulder_virtual
						{
							OFFSET 0.000000 0.000000 0.000000
							CHANNELS 3 Xrotation Yrotation Zrotation
							JOINT RightShoulder
							{
								OFFSET -6.292450 5.785301 -0.669000
								CHANNELS 3 Xrotation Yrotation Zrotation
								JOINT RightShoulder_split
								{
									OFFSET -6.292450 5.785301 -0.669000
									CHANNELS 3 Xrotation Yrotation Zrotation
									JOINT RightArm
									{
										OFFSET -13.907140 -6.093903 1.965100
										CHANNELS 3 Xrotation Yrotation Zrotation
										JOINT RightForeArm
										{
											OFFSET -34.140198 0.000000 0.000000
											CHANNELS 3 Xrotation Yrotation Zrotation
											JOINT RightHand
											{
												OFFSET -40.960209 0.000000 0.000000
												CHANNELS 3 Xrotation Yrotation Zrotation
												End Site
												{
													OFFSET 0 0 0
												}
											}
										}
									}
								}
							}
						}
					}
				}
			}
		}
	}
}
MOTION
Frames: 4
Frame Time: 0.03333333
-0.598699 113.368805 14.603966 0.000000 0.000000 0.000000 2.888831 32.593984 -1.559996 -22.507517 7.669128 6.283712 21.272624 -17.782818 -4.450882 -6.031699 -10.998686 0.948107 -1.202008 -0.467659 -0.250954 0.000000 0.000000 0.000000 3.197808 32.345440 -2.013929 -13.526577 13.973866 1.880523 22.158279 18.495577 -1.362655 -7.867384 3.620638 -1.695962 -6.016996 -0.819203 1.264613 0.000000 0.000000 0.000000 3.437142 33.778653 -2.179303 7.103261 0.938208 -1.107426 0.559246 0.718048 1.361474 0.620248 0.524870 0.578024 0.000000 0.000000 0.000000 1.037617 1.054344 1.510010 -3.433971 29.095793 -7.974751 -6.898273 22.739274 -2.430487 0.000000 0.000000 0.000000 1.350384 1.065879 1.771659 0.086838 -3.208916 -1.447508 4.912056 0.510216 -2.311327 -63.486622 18.523676 -19.201629 10.553886 -74.541672 12.604721 0.000000 0.000000 0.000000 1.370894 1.071080 1.393469 4.615502 6.313431 9.025145 -2.865191 -0.843213 1.113123 11.827877 21.775188 62.835712 10.507478 22.924946 -4.212622 0.000000 0.000000 0.000000 
-2.237461 113.621338 15.480209 0.000000 0.000000 0.000000 3.318607 37.869554 -2.387408 -23.307840 8.334426 7.736278 21.042768 -18.430844 -4.202641 -5.648465 -9.710669 0.497071 -1.562518 -0.525712 0.047031 0.000000 0.000000 0.000000 3.772952 37.783295 -2.948036 -12.838289 13.170521 1.735748 20.936381 15.903407 -0.006076 -8.053279 2.315793 -2.596748 -4.535912 -0.783808 1.293894 0.000000 0.000000 0.000000 3.681414 38.852438 -2.966675 7.280722 0.634392 -1.458221 0.531950 0.444827 1.357102 0.705970 0.514042 0.600026 0.000000 0.000000 0.000000 1.063707 0.790201 1.584712 -3.589246 27.357324 -8.068968 -7.666828 20.822759 -1.017926 0.000000 0.000000 0.000000 1.250685 0.800920 1.874054 0.127922 -6.411656 -0.699718 4.724634 0.478268 -2.154206 -63.633348 16.487120 -20.729885 9.707160 -72.803738 12.054589 0.000000 0.000000 0.000000 1.296791 0.796550 1.511507 4.566372 6.214312 8.744892 -3.334128 -0.716559 1.006950 10.928730 18.696654 63.328722 10.653081 23.404881 -4.400565 0.000000 0.000000 0.000000 
-3.821365 113.753304 15.867607 0.000000 0.000000 0.000000 3.867644 42.672806 -3.395447 -24.400129 8.911562 9.504367 20.321609 -17.879345 -3.851050 -5.038539 -8.145787 -0.035816 -1.605429 -0.567554 0.341682 0.000000 0.000000 0.000000 4.496957 42.504643 -4.037133 -12.713695 12.021330 1.870921 20.419313 13.147225 1.104760 -8.445238 0.976613 -3.115778 -3.029637 -0.608155 1.252133 0.000000 0.000000 0.000000 4.225540 43.428009 -3.965028 7.460096 0.468793 -1.799890 0.552796 0.258979 1.412330 0.820349 0.462358 0.623810 0.000000 0.000000 0.000000 1.148451 0.600981 1.707970 -3.864897 25.719829 -8.062282 -8.453936 18.953601 0.326018 0.000000 0.000000 0.000000 1.205895 0.605249 2.011865 0.226728 -9.192920 -0.013263 4.314885 0.282634 -1.904888 -63.825372 14.507670 -22.086899 8.869088 -71.133087 11.533587 0.000000 0.000000 0.000000 1.231118 0.594255 1.678080 4.508772 6.207226 8.491419 -3.610845 -0.587604 0.790787 9.393578 14.715170 63.813665 10.749012 24.056700 -4.573145 0.000000 0.000000 0.000000 
-5.323512 113.785316 15.870384 0.000000 0.000000 0.000000 4.484028 47.022499 -4.446445 -25.722171 9.133053 11.476061 19.246233 -16.207260 -3.426561 -4.044688 -6.414028 -0.605924 -1.035082 -0.581127 0.487330 0.000000 0.000000 0.000000 5.238028 46.538710 -5.130987 -12.970869 10.967624 2.245299 20.464290 10.580099 1.822093 -8.813989 -0.294527 -3.103321 -2.135038 -0.350501 1.127782 0.000000 0.000000 0.000000 4.954459 47.518459 -5.068519 7.623998 0.395541 -2.126742 0.606945 0.127333 1.543558 0.884996 0.357351 0.624121 0.000000 0.000000 0.000000 1.269846 0.462020 1.884519 -4.167308 24.213239 -7.971507 -9.178918 17.242620 1.526040 0.000000 0.000000 0.000000 1.204883 0.449109 2.188491 0.361200 -11.449574 0.580106 3.726039 -0.085226 -1.730885 -64.139697 12.683596 -23.317576 8.273677 -69.570879 11.238649 0.000000 0.000000 0.000000 1.167515 0.444493 1.898253 4.463214 6.258451 8.254475 -3.675587 -0.449467 0.541986 7.280348 9.992399 64.213026 10.711079 24.747116 -4.656144 0.000000 0.000000 0.000000 
